<mxfile host="app.diagrams.net" modified="2024-05-21T07:19:00.398Z" agent="Mozilla/5.0 (Macintosh; Intel Mac OS X 10_15_7) AppleWebKit/537.36 (KHTML, like Gecko) Chrome/124.0.0.0 Safari/537.36" version="24.4.4" etag="J6xIvhF9Jx0eJAwvvbzR" type="github">
  <diagram name="Page-1" id="S_j9W3T8xMNqkjD4jAgj">
    <mxGraphModel>
      <root>
        <mxCell id="0" />
        <mxCell id="1" parent="0" />
      </root>
    </mxGraphModel>
  </diagram>
</mxfile>
